<svg xmlns="http://www.w3.org/2000/svg" version="1.1" xmlnsXlink="http://www.w3.org/1999/xlink" xmlnsSvgjs="http://svgjs.dev/svgjs" width="1000" height="1000" viewBox="0 0 1000 1000"><rect width="1000" height="1000" fill="#ffffff"></rect><g transform="matrix(0.7,0,0,0.7,149.57576541050247,440.528073887417)"><svg viewBox="0 0 396 68" data-background-color="#ffffff" preserveAspectRatio="xMidYMid meet" height="171" width="1000" xmlns="http://www.w3.org/2000/svg" xmlnsXlink="http://www.w3.org/1999/xlink"><g id="tight-bounds" transform="matrix(1,0,0,1,0.24000348086519807,-0.21477881657773423)"><svg viewBox="0 0 395.52 68.42954999683874" height="68.42954999683874" width="395.52"><g><svg viewBox="0 0 537.2820936258277 92.95603733862957" height="68.42954999683874" width="395.52"><g><rect width="6.065753529542799" height="80.71435948361467" x="119.81740415507332" y="6.1208389275074495" fill="#398378" opacity="1" stroke-width="0" stroke="transparent" fill-opacity="1" class="rect-o-0" data-fill-palette-color="primary" rx="1%" id="o-0" data-palette-color="#398378"></rect></g><g transform="matrix(1,0,0,1,141.76209362582765,12.847035551142007)"><svg viewBox="0 0 395.52 67.26196623634556" height="67.26196623634556" width="395.52"><g id="textblocktransform"><svg viewBox="0 0 395.52 67.26196623634556" height="67.26196623634556" width="395.52" id="textblock"><g><svg viewBox="0 0 395.52 67.26196623634556" height="67.26196623634556" width="395.52"><g transform="matrix(1,0,0,1,0,0)"><svg width="395.52" viewBox="3.049999952316284 -34.25 201.38999938964844 34.25" height="67.26196623634556" data-palette-color="#398378"><path d="M21.45-22.4L21.45-22.4Q21.45-24.25 21.1-25.33 20.75-26.4 19.88-26.95 19-27.5 17.98-27.68 16.95-27.85 15.15-27.85L15.15-27.85 15.15-16.85Q16.55-16.85 17.63-17.1 18.7-17.35 19.6-17.95 20.5-18.55 20.98-19.68 21.45-20.8 21.45-22.4ZM15.15-10.3L15.15-7.5Q15.15-3.45 13.65-1.73 12.15 0 9.05 0L9.05 0Q5.95 0 4.5-1.58 3.05-3.15 3.05-7.15L3.05-7.15 3.05-28.25Q3.05-31.3 4.7-32.77 6.35-34.25 9.05-34.25L9.05-34.25 17.95-34.25Q21.2-34.25 23.95-33.38 26.7-32.5 28.73-30.93 30.75-29.35 31.88-26.98 33-24.6 33-21.7L33-21.7Q33-18.15 30.95-15.53 28.9-12.9 25.55-11.6 22.2-10.3 18-10.3L18-10.3 15.15-10.3ZM49.95-20.3L58.55-20.3Q61.2-20.3 62.27-19.45 63.35-18.6 63.35-16.55L63.35-16.55Q63.35-14.85 62.07-14.13 60.8-13.4 58.1-13.4L58.1-13.4 50-13.4 50-8.1 60.85-8.05Q63.65-8.05 64.87-7.23 66.1-6.4 66.1-4.3L66.1-4.3Q66.1-1.9 64.67-0.95 63.25 0 60.35 0L60.35 0 44.15 0Q41.2 0 39.82-1.58 38.45-3.15 38.45-7.15L38.45-7.15 38.45-28.25Q38.45-34.25 44.15-34.25L44.15-34.25 60.35-34.25Q63.25-34.25 64.67-33.35 66.1-32.45 66.1-30.1L66.1-30.1Q66.1-27.9 64.87-27.03 63.65-26.15 60.85-26.15L60.85-26.15 49.95-26.15 49.95-20.3ZM93.19-25.6L93.19-7.5Q93.19-4.65 92.5-2.98 91.8-1.3 90.57-0.65 89.34 0 87.34 0L87.34 0Q84.39 0 83.07-1.58 81.75-3.15 81.69-7.15L81.69-7.15 81.59-25.6 77.34-25.6Q74.19-25.6 72.62-26.6 71.05-27.6 71.05-30.15L71.05-30.15Q71.05-31.7 71.67-32.6 72.3-33.5 73.55-33.88 74.8-34.25 76.89-34.25L76.89-34.25 98.3-34.25Q101.09-34.25 102.34-33.25 103.59-32.25 103.59-29.8L103.59-29.8Q103.59-28.15 102.87-27.23 102.15-26.3 100.94-25.95 99.75-25.6 97.84-25.6L97.84-25.6 93.19-25.6ZM126.89-22.4L126.89-22.4Q126.89-24.25 126.54-25.33 126.19-26.4 125.32-26.95 124.44-27.5 123.42-27.68 122.39-27.85 120.59-27.85L120.59-27.85 120.59-16.85Q121.99-16.85 123.07-17.1 124.14-17.35 125.04-17.95 125.94-18.55 126.42-19.68 126.89-20.8 126.89-22.4ZM120.59-10.3L120.59-7.5Q120.59-3.45 119.09-1.73 117.59 0 114.49 0L114.49 0Q111.39 0 109.94-1.58 108.49-3.15 108.49-7.15L108.49-7.15 108.49-28.25Q108.49-31.3 110.14-32.77 111.79-34.25 114.49-34.25L114.49-34.25 123.39-34.25Q126.64-34.25 129.39-33.38 132.14-32.5 134.17-30.93 136.19-29.35 137.32-26.98 138.44-24.6 138.44-21.7L138.44-21.7Q138.44-18.15 136.39-15.53 134.34-12.9 130.99-11.6 127.64-10.3 123.44-10.3L123.44-10.3 120.59-10.3ZM158.34-26.1L158.34-26.1Q156.19-26.1 155.16-24.85 154.14-23.6 154.14-20.4L154.14-20.4 154.14-14.5 162.44-14.5 162.44-20.5Q162.44-22.6 161.94-23.88 161.44-25.15 160.56-25.63 159.69-26.1 158.34-26.1ZM162.44-4.95L162.44-7.6 154.14-7.6 154.14-4.95Q154.14-2.4 152.79-1.2 151.44 0 148.14 0L148.14 0Q146.74 0 145.84-0.4 144.94-0.8 144.26-1.75 143.59-2.7 143.26-4.53 142.94-6.35 142.76-8.93 142.59-11.5 142.59-15.45L142.59-15.45Q142.59-18.9 143.31-21.78 144.04-24.65 145.26-26.65 146.49-28.65 148.04-30.18 149.59-31.7 151.41-32.55 153.24-33.4 154.97-33.83 156.69-34.25 158.44-34.25L158.44-34.25Q160.54-34.25 162.59-33.68 164.64-33.1 166.74-31.7 168.84-30.3 170.41-28.23 171.99-26.15 172.99-22.85 173.99-19.55 173.99-15.45L173.99-15.45Q173.99-8.85 173.51-5.68 173.04-2.5 171.91-1.25 170.79 0 168.44 0L168.44 0Q165.14 0 163.79-1.2 162.44-2.4 162.44-4.95L162.44-4.95ZM198.69 0L185.64 0Q183.34-0.05 181.94-0.73 180.54-1.4 179.84-2.95 179.14-4.5 179.14-7.1L179.14-7.1 179.14-28.25Q179.14-30.9 180.69-32.58 182.24-34.25 184.79-34.25L184.79-34.25Q187.79-34.25 189.21-33.15 190.64-32.05 190.64-28.7L190.64-28.7 190.64-8.65 199.19-8.65Q202.09-8.65 203.26-7.8 204.44-6.95 204.44-4.3L204.44-4.3Q204.44-1.6 203.09-0.8 201.74 0 198.69 0L198.69 0Z" opacity="1" transform="matrix(1,0,0,1,0,0)" fill="#398378" class="wordmark-text-0" data-fill-palette-color="primary" id="text-0"></path></svg></g></svg></g></svg></g></svg></g><g><svg viewBox="0 0 103.93846821386181 92.95603733862957" height="92.95603733862957" width="103.93846821386181"><g><svg xmlns="http://www.w3.org/2000/svg" xmlnsXlink="http://www.w3.org/1999/xlink" version="1.1" x="0" y="0" viewBox="5.557957649230957 11.369993209838867 89.44053649902344 79.98999786376953" enable-background="new 0 0 100 100" xmlSpace="preserve" height="92.95603733862957" width="103.93846821386181" class="icon-icon-0" data-fill-palette-color="accent" id="icon-0"><g fill="#398378" data-fill-palette-color="accent"><circle cx="36.506" cy="31.059" r="2.5" fill="#398378" data-fill-palette-color="accent"></circle><path d="M91.697 60.795c-0.888-0.746-1.662-0.755-2.154-0.633-1.672 0.418-2.123 2.531-2.694 5.206-0.276 1.292-0.561 2.628-0.979 3.822-0.466 1.331-1.452 1.794-2.227 1.945-0.256-1.917-1.103-5.407-3.906-7.942-1.644-1.488-3.394-2.634-5.087-3.742-2.084-1.365-4.238-2.776-6.23-4.857-2.973-3.108-4.233-7.907-4.514-9.121 0.315-0.17 0.622-0.35 0.912-0.552 4.216-2.952 4.047-9.063 3.236-15.228-0.972-7.389-8.648-18.323-22.035-18.323-8.355 0-11.861 3.563-15.574 7.335-2.059 2.092-4.188 4.255-7.363 6.078-1.951 1.12-3.923 1.328-5.37 1.27-3.283-1.703-7.726-0.362-10.312 3.265-2.793 3.917-2.361 9.014 0.964 11.384 0.382 0.272 0.786 0.494 1.205 0.672 0.013 0.037 0.021 0.075 0.038 0.111 0.299 0.651 7.51 15.918 24.296 15.918 0.018 0 0.038 0 0.056 0 3.863-0.008 6.922-0.487 9.345-1.197v18.46c-1.79 0.216-3.5 0.797-4.844 1.675-2.137 1.396-3.314 3.483-3.314 5.876 0 6.748 6.308 9.143 11.71 9.143 3.945 0 7.36-1.506 10.175-4.476 0.87 1.056 2.074 1.958 3.597 2.683 2.36 1.123 5.54 1.793 8.505 1.793 6.256 0 10.53-2.571 13.964-4.636 1.201-0.723 2.336-1.405 3.435-1.913 2.931-1.353 4.869-4.069 5.978-6.108 1.373-2.524 2.268-5.482 2.456-8.116C95.261 66.481 93.498 62.308 91.697 60.795zM55.371 82.216c0 0.74 0.103 1.445 0.299 2.113-2.412 2.861-5.373 4.31-8.813 4.31-1.501 0-8.991-0.31-8.991-6.423 0-3.616 4.167-4.929 6.968-4.929 1.871 0 5.129 0.967 6.128 2.714 0.372 0.652 1.203 0.879 1.855 0.506 0.652-0.372 0.879-1.203 0.506-1.855-1.38-2.416-4.753-3.689-7.299-4.003V55.363c0-0.051-0.01-0.1-0.015-0.15 4.755-2.144 5.97-5.119 6.044-5.313 0.268-0.701-0.079-1.497-0.78-1.765-0.701-0.27-1.484 0.073-1.752 0.774-0.024 0.057-2.555 5.747-15.566 5.774-0.016 0-0.032 0-0.048 0-1.102 0-2.158-0.078-3.171-0.22 1.018-0.266 1.988-0.651 2.801-1.207 3.659-2.503 4.285-5.844 4.31-5.984 0.131-0.74-0.363-1.445-1.103-1.575-0.74-0.13-1.445 0.363-1.575 1.103-0.004 0.023-0.486 2.378-3.168 4.213-2.164 1.48-6.566 1.353-8.431 1.147-5.706-2.982-9.175-7.844-10.653-10.295 2.408-0.231 4.855-1.62 6.526-3.964 2.133-2.992 2.379-6.668 0.898-9.296 1.288-0.217 2.691-0.656 4.098-1.464 3.498-2.008 5.862-4.41 7.947-6.528 3.587-3.644 6.42-6.523 13.636-6.523 6.781 0 11.304 3.125 13.905 5.746 3.477 3.505 5.087 7.573 5.434 10.212 0.956 7.268 0.348 10.932-2.099 12.645-2.929 2.05-9.084 1.874-11.607-1.122-2.278-2.705-1.323-7.754-0.334-9.733 1.133-2.267 3.284-5.417 3.305-5.449 0.424-0.62 0.265-1.466-0.355-1.89-0.621-0.424-1.466-0.265-1.89 0.354-0.093 0.135-2.276 3.334-3.493 5.768-1.504 3.008-2.326 9.125 0.686 12.701 1.918 2.278 5.297 3.495 8.654 3.495 1.057 0 2.109-0.128 3.115-0.374 0.454 1.838 1.89 6.659 5.114 10.03 0.498 0.521 1.001 0.996 1.506 1.443-2.989 0.609-6.379 2.398-7.946 6.583-1.307 3.49-0.01 8.41 0.782 10.805-0.765 0.276-1.48 0.623-2.113 1.037C56.549 77.736 55.371 79.823 55.371 82.216zM92.255 70.392c-0.312 4.367-3.024 10.178-6.861 11.949-1.234 0.57-2.431 1.289-3.698 2.051-3.309 1.991-7.061 4.247-12.562 4.247-2.581 0-5.324-0.572-7.337-1.529-2.459-1.17-3.707-2.817-3.707-4.895 0-3.616 4.167-4.929 6.968-4.929 3.241 0 5.69 0.986 8.452 3.403 0.565 0.494 1.424 0.438 1.919-0.128 0.494-0.565 0.437-1.424-0.128-1.919-3.265-2.856-6.328-4.075-10.243-4.075-0.539 0-1.077 0.038-1.608 0.106-0.795-2.328-1.865-6.612-0.888-9.222 1.925-5.142 7.272-5.136 8.616-5.05 0.665 0.458 1.327 0.895 1.983 1.324 1.679 1.099 3.265 2.138 4.752 3.483 3.061 2.769 3.121 7.278 3.122 7.32 0 0.677 0.498 1.25 1.167 1.346 1.619 0.233 5.001-0.264 6.234-3.786 0.475-1.357 0.792-2.842 1.072-4.153 0.189-0.884 0.451-2.114 0.707-2.803C91.072 64.129 92.495 67.033 92.255 70.392z" fill="#398378" data-fill-palette-color="accent"></path></g></svg></g></svg></g></svg></g><defs></defs></svg><rect width="395.52" height="68.42954999683874" fill="none" stroke="none" visibility="hidden"></rect></g></svg></g></svg>